<svg xmlns="http://www.w3.org/2000/svg" width="40" height="40" viewBox="0 0 40 40">
  <g id="Group_1185" data-name="Group 1185" transform="translate(-1106 -80)">
    <circle id="Ellipse_14" data-name="Ellipse 14" cx="20" cy="20" r="20" transform="translate(1106 80)" fill="#fd4703"/>
    <path id="call_FILL0_wght400_GRAD0_opsz48" d="M142.5-816a17.981,17.981,0,0,1-8.083-2,27.445,27.445,0,0,1-7.217-5.2,27.445,27.445,0,0,1-5.2-7.217,17.981,17.981,0,0,1-2-8.083,1.453,1.453,0,0,1,.429-1.071A1.453,1.453,0,0,1,121.5-840h4.667a1.186,1.186,0,0,1,.81.317,1.456,1.456,0,0,1,.456.85l.9,4.2a2.4,2.4,0,0,1-.017.85,1.284,1.284,0,0,1-.35.65l-3.333,3.367a27.674,27.674,0,0,0,4.183,5.4,23.12,23.12,0,0,0,5.25,3.9l3.167-3.267a1.843,1.843,0,0,1,.767-.517,1.541,1.541,0,0,1,.867-.05l3.967.867a1.474,1.474,0,0,1,.839.506A1.4,1.4,0,0,1,144-822v4.5a1.454,1.454,0,0,1-.429,1.071A1.454,1.454,0,0,1,142.5-816Zm-18.867-15.6,2.7-2.733L125.567-838H122a11.474,11.474,0,0,0,.4,2.85A26.873,26.873,0,0,0,123.633-831.6Zm12.3,12.1a16.636,16.636,0,0,0,2.967,1.033A15.643,15.643,0,0,0,142-818v-3.567l-3.433-.7ZM123.633-831.6ZM135.933-819.5Z" transform="translate(994 928)" fill="#fff"/>
  </g>
</svg>
