<svg xmlns="http://www.w3.org/2000/svg" width="40" height="40" viewBox="0 0 40 40">
  <g id="Group_1155" data-name="Group 1155" transform="translate(-224 -704)">
    <circle id="Ellipse_12" data-name="Ellipse 12" cx="20" cy="20" r="20" transform="translate(224 704)" fill="#fd4703"/>
    <path id="sell_FILL0_wght400_GRAD0_opsz48" d="M94.334-856.569a1.773,1.773,0,0,1-1.3.539,1.773,1.773,0,0,1-1.3-.539L80.509-867.791a1.571,1.571,0,0,1-.4-.628,2.256,2.256,0,0,1-.1-.688v-9.1a1.744,1.744,0,0,1,.509-1.287A1.744,1.744,0,0,1,81.8-880h9.1a2.554,2.554,0,0,1,.718.1,1.537,1.537,0,0,1,.658.4l11.162,11.162A1.824,1.824,0,0,1,104-867a1.824,1.824,0,0,1-.569,1.332ZM93.107-857.8l9.1-9.1L90.893-878.2H81.8v9.1Zm-8.17-15.741A1.494,1.494,0,0,0,86.03-874a1.494,1.494,0,0,0,.464-1.092,1.494,1.494,0,0,0-.464-1.092,1.494,1.494,0,0,0-1.092-.464,1.494,1.494,0,0,0-1.092.464,1.494,1.494,0,0,0-.464,1.092A1.494,1.494,0,0,0,83.845-874,1.494,1.494,0,0,0,84.938-873.536ZM81.8-878.2Z" transform="translate(152 1592)" fill="#fff"/>
  </g>
</svg>
