<svg xmlns="http://www.w3.org/2000/svg" width="40" height="40" viewBox="0 0 40 40">
  <g id="Group_1153" data-name="Group 1153" transform="translate(-376 -712)">
    <circle id="Ellipse_14" data-name="Ellipse 14" cx="20" cy="20" r="20" transform="translate(376 712)" fill="#fd4703"/>
    <path id="update_FILL0_wght400_GRAD0_opsz48_1_" data-name="update_FILL0_wght400_GRAD0_opsz48(1)" d="M132.1-816a11.727,11.727,0,0,1-4.7-.95,12.407,12.407,0,0,1-3.85-2.583,12.065,12.065,0,0,1-2.6-3.833,11.728,11.728,0,0,1-.95-4.7,11.492,11.492,0,0,1,.95-4.667,11.971,11.971,0,0,1,2.6-3.783,12.316,12.316,0,0,1,3.85-2.55,11.908,11.908,0,0,1,4.7-.933,11.339,11.339,0,0,1,5.05,1.167,12.685,12.685,0,0,1,4.117,3.2v-3.533h2v6.933H136.3v-2h3.5a11.592,11.592,0,0,0-3.45-2.733A9.064,9.064,0,0,0,132.1-838a9.929,9.929,0,0,0-7.133,2.85A9.309,9.309,0,0,0,122-828.167a9.86,9.86,0,0,0,2.933,7.2A9.694,9.694,0,0,0,132.1-818a9.453,9.453,0,0,0,7.033-2.933,9.786,9.786,0,0,0,2.867-7.1h2a11.685,11.685,0,0,1-3.467,8.517A11.4,11.4,0,0,1,132.1-816Zm4.067-6.567-5.133-5.067v-7.133h2v6.3L137.6-824Z" transform="translate(264 1560)" fill="#fff"/>
  </g>
</svg>
