<svg xmlns="http://www.w3.org/2000/svg" width="5013" height="1783" viewBox="0 0 5013 1783" version="1.1"><path d="" stroke="none" fill="#000000" fill-rule="evenodd"/><path d="M 1646 25.460 C 1584.780 35.557, 1529.995 102.703, 1485.230 222.500 C 1439.612 344.580, 1406.724 519.060, 1393.057 711.500 C 1388.420 776.804, 1387.748 800.943, 1388.327 881.500 C 1388.627 923.300, 1389.346 969.200, 1389.925 983.500 C 1394.705 1101.579, 1399.084 1183.138, 1407.023 1302 C 1411.396 1367.465, 1411.726 1378.791, 1409.511 1387.297 C 1404.001 1408.450, 1387.106 1424.277, 1359.814 1433.851 C 1355.036 1435.527, 1347.418 1437.602, 1342.884 1438.463 C 1338.350 1439.323, 1334.384 1440.291, 1334.070 1440.615 C 1333.757 1440.938, 1337.325 1440.913, 1342 1440.560 C 1364.167 1438.882, 1462.129 1433.836, 1520.750 1431.352 C 1579.471 1428.865, 1586 1428.424, 1586 1426.946 C 1586 1426.043, 1583.096 1393.398, 1579.546 1354.402 C 1566.083 1206.504, 1561.149 1144.046, 1557.042 1069.500 C 1550.795 956.108, 1551.110 854.057, 1558.031 748.500 C 1565.254 638.362, 1584.012 561.608, 1616.572 508.972 C 1634.070 480.683, 1657.391 459.069, 1684.500 446.015 C 1702.149 437.516, 1725.309 431.166, 1746.812 428.929 C 1769.822 426.535, 2068.474 426.938, 2209.500 429.553 L 2239.500 430.109 2235.500 426.450 C 2230.187 421.589, 2121.796 334.706, 2077 299.401 C 1916.402 172.829, 1797.379 84.768, 1737.489 48.210 C 1719.665 37.330, 1702.161 29.948, 1685.838 26.426 C 1675.556 24.208, 1656.407 23.743, 1646 25.460 M 1435 52.637 C 1410.907 57.285, 1213.779 93.823, 1195 97.122 C 1163.581 102.641, 1152.050 106.981, 1139.820 117.887 C 1134.219 122.883, 1132.658 125.620, 1127.144 140.121 C 1109.667 186.086, 1091.411 242.955, 1075.097 302.256 C 1052.311 385.083, 1043.703 421, 1046.638 421 C 1047.565 421, 1072.064 405.217, 1103.831 384.155 C 1119.049 374.066, 1137.350 362.325, 1144.500 358.065 C 1190.891 330.426, 1239.968 308.503, 1308.500 284.808 C 1333.354 276.214, 1340.966 272.393, 1350.500 263.726 C 1363.023 252.340, 1372.578 236.114, 1386.848 202 C 1400.955 168.276, 1408.892 150.725, 1437.884 89.144 C 1447.298 69.148, 1455 52.386, 1455 51.894 C 1455 50.563, 1443.550 50.988, 1435 52.637 M 1069.500 122.674 C 1067.850 122.880, 1065.513 123.265, 1064.307 123.529 C 1062.738 123.873, 1054.231 135.763, 1034.455 165.255 C 1019.243 187.940, 1006.055 207.217, 1005.148 208.093 C 1003.662 209.528, 965.464 218.685, 848.500 245.646 C 818.951 252.457, 809.725 255.757, 806.155 260.795 C 802.852 265.456, 778.186 329.858, 760.308 380.500 C 691.165 576.361, 646.985 769.973, 636.858 921.500 C 636.233 930.850, 635.755 939.996, 635.795 941.825 C 635.891 946.166, 638.342 949.795, 641.763 950.661 C 643.268 951.042, 674.425 948.566, 711 945.158 C 747.575 941.750, 779.464 938.794, 781.864 938.591 C 786.776 938.173, 790.878 935.588, 792.780 931.711 C 793.484 930.277, 794.277 924.917, 794.543 919.801 C 795.942 892.825, 801.676 837.910, 807.574 795 C 816.580 729.466, 835.126 626.459, 839.409 618.176 C 843.251 610.747, 857.194 603.459, 877.278 598.382 C 885.684 596.257, 912.089 591.771, 912.694 592.365 C 912.801 592.470, 911.090 600.418, 908.891 610.028 C 906.693 619.637, 901.331 645.275, 896.977 667 C 879.456 754.424, 867.404 836.609, 860.517 915.648 C 858.553 938.184, 856.137 949.483, 850.284 963.500 C 838.008 992.903, 811.805 1013.868, 781 1018.937 C 777.425 1019.525, 748.095 1021.818, 715.822 1024.032 L 657.145 1028.057 645.143 1025.194 L 633.142 1022.331 632.575 1026.915 C 629.460 1052.107, 628.507 1138.841, 630.854 1183.500 C 633.993 1243.201, 639.070 1302.692, 645.640 1356.750 L 646.279 1362 653.889 1361.983 C 658.075 1361.974, 707.400 1361.081, 763.500 1360 C 819.600 1358.919, 871.843 1358.026, 879.596 1358.017 L 893.691 1358 895.325 1373.750 C 896.224 1382.413, 897.950 1399.288, 899.161 1411.250 L 901.363 1433 938.045 1433 C 968.714 1433, 984.068 1432.265, 985.610 1430.724 C 985.831 1430.502, 978.322 1339.606, 975.057 1303 C 965.510 1195.928, 962.768 1157.048, 961.074 1104.686 C 960.596 1089.939, 960.023 1077.689, 959.799 1077.465 C 959.316 1076.982, 899.931 1116.681, 882 1129.474 C 865.378 1141.334, 836.213 1162.963, 827.500 1169.892 C 820.581 1175.395, 820.536 1175.413, 823.597 1171.479 C 825.301 1169.291, 842.586 1147.025, 862.009 1122 C 908.409 1062.216, 931.499 1033.860, 951.722 1011.825 L 959.684 1003.150 960.338 990.325 C 960.698 983.271, 960.995 958.150, 960.999 934.500 C 961.006 889.525, 962 847.984, 964.517 787.500 C 967.658 712.029, 970.283 674.676, 975.518 631 C 978.146 609.068, 986.571 541.975, 987.477 535.750 C 987.803 533.514, 987.613 532, 987.005 532 C 986.445 532, 972.314 540.550, 955.604 551 C 938.894 561.450, 924.933 570, 924.580 570 C 922.477 570, 967.070 506.694, 987.781 480.276 C 992.190 474.653, 996.724 468.128, 997.857 465.776 C 999.025 463.353, 1002.566 448.064, 1006.026 430.500 C 1027.189 323.085, 1045.236 257.157, 1073.778 183 C 1080.110 166.548, 1089.003 137.375, 1088.996 133.074 C 1088.991 129.502, 1085.510 124.144, 1082.434 122.975 C 1079.929 122.023, 1075.539 121.920, 1069.500 122.674 M 2161.500 215.934 C 2150.376 218.646, 2145.439 226.058, 2146.167 238.952 C 2146.598 246.585, 2149.479 251.567, 2155.302 254.751 C 2158.342 256.413, 2222.573 256.512, 3452.487 256.752 C 4622.980 256.979, 4746.923 256.854, 4751.175 255.442 C 4758.788 252.913, 4764.989 244.411, 4764.989 236.500 C 4764.989 229.046, 4759.504 221.057, 4752 217.583 L 4747.500 215.500 3456 215.351 C 2745.675 215.270, 2163.150 215.532, 2161.500 215.934 M 539.500 238.075 C 524.650 241.277, 502.395 245.751, 490.044 248.017 C 464.707 252.665, 459.224 254.680, 451.845 262.059 C 445.402 268.503, 441.614 276.520, 429.028 310.354 C 405.791 372.817, 396.771 402.891, 374.993 490.500 C 352.227 582.084, 348.674 604.468, 354.875 617.250 C 356.942 621.513, 359.861 623.966, 383.339 641.165 C 406.697 658.276, 428.948 674.909, 431.381 677.077 C 431.865 677.509, 429.390 677.209, 425.881 676.412 C 387.461 667.682, 339.453 657.419, 339.274 657.897 C 338.833 659.069, 322.066 814.882, 319.569 841 C 311.666 923.687, 308.682 983.607, 308.612 1061 C 308.567 1111.189, 308.731 1117.054, 310.321 1122.291 C 312.562 1129.669, 316.354 1133.849, 330.389 1144.411 C 353.723 1161.972, 402.413 1204.094, 428 1228.855 C 439.564 1240.046, 440.200 1240.850, 436.500 1239.595 C 434.300 1238.848, 405.667 1228.284, 372.872 1216.119 C 340.077 1203.953, 312.784 1194, 312.223 1194 C 309.333 1194, 309.472 1259.153, 312.427 1290 C 313.296 1299.075, 315.354 1318.650, 317 1333.500 C 321.500 1374.097, 322.986 1391.600, 323.678 1412.137 L 324.306 1430.773 360.403 1431.368 C 380.256 1431.696, 440.278 1432.150, 493.785 1432.379 C 583.770 1432.762, 591.031 1432.670, 590.557 1431.147 C 589.448 1427.579, 582.788 1388.388, 579.996 1369 C 568.380 1288.316, 562.749 1199.276, 562.590 1093.750 C 562.540 1060.888, 562.403 1034, 562.283 1034 C 562.164 1034, 535.164 1036.716, 502.283 1040.036 C 469.403 1043.356, 437.378 1046.353, 431.117 1046.696 L 419.734 1047.320 423.170 1041.910 C 429.131 1032.524, 450.538 997.751, 454.092 991.680 C 462.638 977.087, 474.044 967.062, 484.261 965.164 C 487.143 964.629, 503.675 963.422, 521 962.481 C 555.777 960.592, 558.733 959.992, 563.037 953.948 C 565.587 950.367, 565.248 953.730, 567.972 905 C 575.091 777.634, 604.224 630.042, 651.862 480 C 672.342 415.495, 700.002 341.274, 723.041 289 C 727.497 278.891, 730.278 271.405, 729.627 271.276 C 729.007 271.153, 685.975 279.764, 634 290.412 C 582.025 301.059, 539.445 309.710, 539.378 309.636 C 539.311 309.561, 546.177 292.859, 554.634 272.519 C 563.092 252.179, 570.265 234.742, 570.573 233.769 C 571.365 231.274, 570.442 231.402, 539.500 238.075 M 362 268.600 C 324.625 273.104, 296.160 283.461, 273.696 300.729 C 247.200 321.097, 213.855 362.498, 190.923 403.500 C 175.477 431.117, 165.335 454.288, 145.060 508.279 C 131.570 544.202, 130.308 549.140, 133.465 553.647 C 135.799 556.978, 140.200 558.561, 166.616 565.564 C 200.005 574.416, 225.153 581.538, 250.906 589.436 C 280.652 598.558, 285.595 598.292, 290.439 587.314 C 291.212 585.562, 295.695 566.174, 300.401 544.230 C 320.136 452.209, 330.840 411.328, 347.587 363.999 C 363.494 319.049, 381 268.674, 381 267.854 C 381 266.723, 375.928 266.922, 362 268.600 M 2348.340 358.957 C 2339.031 361.178, 2334 368.101, 2334 378.689 C 2334 382.196, 2334.608 386.519, 2335.351 388.298 C 2337.440 393.297, 2343.102 397.663, 2349.187 398.966 C 2353.144 399.813, 2654.301 400.026, 3529 399.801 L 4703.500 399.500 4708.277 397.148 C 4714.343 394.161, 4717.760 389.677, 4719.158 382.869 C 4721.169 373.076, 4716.705 364.276, 4707.737 360.353 C 4703.620 358.553, 4670.146 358.496, 3527.500 358.351 C 2880.700 358.269, 2350.078 358.542, 2348.340 358.957 M 1328 389.085 C 1286.382 400.444, 1216.645 425.921, 1125 463.246 C 1105.475 471.198, 1086.350 478.710, 1082.500 479.938 C 1060.709 486.892, 1046.434 500.891, 1038.948 522.651 C 1035.812 531.766, 1033.256 547.307, 1029.020 583 C 1014.893 702.062, 1008.368 815.488, 1009.191 927.702 L 1009.500 969.904 1021 960.330 C 1027.325 955.065, 1040.015 943.644, 1049.200 934.951 C 1112.504 875.034, 1173.261 829.577, 1239 792.947 C 1244.225 790.036, 1251.650 785.549, 1255.500 782.977 C 1259.350 780.405, 1266.595 775.772, 1271.600 772.682 C 1284.990 764.416, 1291.237 757.450, 1294.158 747.528 C 1294.649 745.863, 1296.173 729.650, 1297.546 711.500 C 1303.699 630.164, 1310.188 577.327, 1330.018 447.093 C 1333.641 423.294, 1334.974 417.538, 1341.091 399.250 C 1345.122 387.198, 1345.599 385.010, 1344.179 385.064 C 1343.255 385.099, 1335.975 386.909, 1328 389.085 M 1759.500 517.041 C 1742.635 519.253, 1728.185 530.011, 1720.603 546 C 1718.676 550.066, 1684.597 665.820, 1680.372 682.656 L 1679.784 684.995 1876.741 685.248 L 2073.698 685.500 1968.533 1052.500 L 1863.369 1419.500 2012.348 1419.753 C 2094.286 1419.893, 2161.459 1419.874, 2161.621 1419.712 C 2161.783 1419.550, 2209.262 1254.174, 2267.131 1052.209 L 2372.346 685 2569.463 685 L 2766.580 685 2790.449 602.250 C 2803.576 556.737, 2814.523 518.712, 2814.775 517.750 C 2815.211 516.085, 2789.783 516.006, 2290.367 516.127 C 2001.690 516.197, 1762.800 516.608, 1759.500 517.041 M 2890.593 517.750 C 2883.248 541.477, 2683.357 1240.416, 2682.033 1247 C 2673.458 1289.667, 2679.957 1328.191, 2701.045 1359.689 C 2721.162 1389.737, 2744.519 1406.488, 2780 1416.315 L 2791.500 1419.500 2981.500 1419.799 C 3113.431 1420.007, 3174.403 1419.767, 3181 1419.014 C 3225.930 1413.883, 3269.917 1394.456, 3311.449 1361.401 C 3326.646 1349.306, 3347.419 1328.773, 3358.937 1314.462 L 3368.625 1302.424 3369.859 1310.262 C 3372.366 1326.201, 3380.548 1346.052, 3390.895 1361.307 C 3409.263 1388.387, 3433.811 1406.167, 3464.292 1414.468 C 3485.294 1420.188, 3477.583 1419.988, 3677.526 1419.994 C 3797.143 1419.998, 3864.518 1419.641, 3870.026 1418.974 C 3905.552 1414.674, 3942.292 1400.776, 3975 1379.264 C 4031.883 1341.852, 4070.173 1293.934, 4088.279 1237.500 C 4093.450 1221.382, 4295 519.487, 4295 517.596 C 4295 516.132, 4282.120 516.015, 4145.813 516.247 L 3996.627 516.500 3894.346 872.500 C 3838.092 1068.300, 3791.362 1230.351, 3790.502 1232.614 C 3788.550 1237.751, 3782.871 1243.529, 3778.117 1245.216 C 3775.257 1246.231, 3751.586 1246.500, 3665 1246.500 C 3563.018 1246.500, 3555.283 1246.381, 3552.333 1244.767 C 3547.665 1242.213, 3546.456 1237.673, 3548.410 1230.044 C 3549.259 1226.731, 3595.411 1065.819, 3650.970 872.461 C 3706.529 679.104, 3752.263 519.799, 3752.602 518.451 L 3753.217 516 3593.358 516.013 L 3433.500 516.025 3331.125 872.763 C 3274.819 1068.968, 3227.867 1231.411, 3226.787 1233.747 C 3224.073 1239.619, 3217.922 1244.636, 3211.840 1245.941 C 3206.493 1247.088, 3073.194 1247.200, 3012.876 1246.108 L 2979.253 1245.500 3084.129 883 C 3141.811 683.625, 3189.278 519.487, 3189.611 518.250 L 3190.217 516 3040.676 516 C 2899.129 516, 2891.106 516.094, 2890.593 517.750 M 4256.037 963.750 C 4185.399 1210.013, 4127.040 1413.412, 4126.350 1415.750 L 4125.096 1420 4520.887 1420 L 4916.678 1420 4940.976 1335.250 C 4954.340 1288.638, 4965.490 1249.713, 4965.754 1248.750 C 4966.209 1247.087, 4954.024 1247, 4720 1247 C 4485.974 1247, 4473.791 1246.913, 4474.251 1245.250 C 4474.517 1244.287, 4521.594 1080.284, 4578.867 880.798 C 4636.140 681.312, 4683 517.624, 4683 517.048 C 4683 516.322, 4637.117 516, 4533.734 516 L 4384.469 516 4256.037 963.750 M 110.034 642.752 C 108.128 643.713, 105.733 645.946, 104.713 647.714 C 103.498 649.818, 99.763 667.777, 93.897 699.714 C 66.776 847.367, 57.990 913.850, 53.816 1003 C 52.190 1037.733, 52.198 1038.627, 54.137 1040.566 C 55.037 1041.466, 60.662 1043.649, 66.637 1045.416 C 72.612 1047.184, 114.888 1061.538, 160.584 1077.315 C 206.280 1093.092, 243.968 1106, 244.334 1106 C 244.700 1106, 245 1101.961, 245 1097.026 C 245 1086.796, 249.934 1017.260, 263.485 836.500 C 277.252 652.863, 276.711 661.414, 274.779 658.194 C 273.889 656.712, 271.577 654.205, 269.639 652.622 C 266.204 649.816, 265.654 649.712, 247.308 648.412 C 222.065 646.624, 124.064 641, 118.182 641.002 C 115.607 641.002, 111.940 641.790, 110.034 642.752 M 446 694.556 C 439.675 695.762, 427.771 698.001, 419.546 699.533 C 402.441 702.718, 401.130 703.505, 398.616 712.109 C 395.970 721.162, 386.007 777.756, 380.591 814.500 C 372.187 871.511, 366.296 934.168, 365.784 972 C 365.570 987.765, 365.686 988.878, 368.397 997 C 375.594 1018.558, 386.972 1033.896, 401.052 1041.020 C 406.391 1043.721, 417.832 1047.551, 418.444 1046.843 C 418.607 1046.654, 419.272 1035.250, 419.921 1021.500 C 423.716 941.139, 436.270 829.898, 454.530 714.812 C 456.459 702.653, 457.917 692.628, 457.769 692.534 C 457.621 692.440, 452.325 693.350, 446 694.556 M 1267.500 910.877 C 1252.100 917.328, 1235.225 924.539, 1230 926.902 C 1210.475 935.730, 1155.390 966.364, 1111.551 992.774 C 1082.686 1010.163, 1062.248 1023.830, 1039.735 1040.797 C 1021.570 1054.486, 1020.070 1056.293, 1017.952 1067.035 C 1017.337 1070.157, 1017.125 1076.787, 1017.458 1082.500 C 1022.744 1173.139, 1032.117 1318.069, 1034.046 1339 C 1035.523 1355.028, 1041.866 1414.733, 1042.553 1419.084 C 1043.325 1423.965, 1046.325 1428.618, 1050.241 1431.005 C 1053.050 1432.718, 1055.295 1432.993, 1066.500 1432.999 C 1073.650 1433.002, 1089.175 1433.708, 1101 1434.567 C 1146.343 1437.862, 1163.303 1433.536, 1185.395 1413.041 C 1188.088 1410.544, 1196.623 1401.300, 1204.362 1392.500 C 1221.803 1372.668, 1223.185 1371.302, 1257.500 1340 C 1304.544 1297.085, 1308.882 1292.227, 1312.469 1278.456 C 1314.271 1271.539, 1313.458 1253.573, 1302.397 1056 C 1297.029 960.123, 1295.905 934.865, 1296.285 918.750 C 1296.542 907.888, 1296.470 899.033, 1296.126 899.074 C 1295.782 899.114, 1282.900 904.425, 1267.500 910.877 M 55.327 1150.696 C 52.103 1151.324, 48.134 1155.767, 47.426 1159.541 C 47.084 1161.366, 48.655 1203.053, 50.919 1252.179 C 53.182 1301.306, 55.026 1342.687, 55.017 1344.139 C 55.003 1346.344, 62.489 1353.689, 100.628 1388.889 L 146.256 1431 202.128 1431 L 258 1431 258 1393.233 C 258 1352.477, 257.675 1345.783, 252.499 1280 C 250.616 1256.075, 248.598 1227.683, 248.013 1216.907 C 247.429 1206.132, 246.546 1195.904, 246.051 1194.179 C 243.613 1185.675, 237.844 1179.552, 230 1177.138 C 222.846 1174.937, 65.237 1149.878, 60.171 1150.136 C 58.702 1150.211, 56.522 1150.463, 55.327 1150.696 M 819.308 1478.194 C 818.103 1478.777, 816.872 1479.892, 816.572 1480.672 C 816.273 1481.452, 813.756 1496.582, 810.980 1514.295 C 808.203 1532.008, 805.695 1547.697, 805.406 1549.159 L 804.881 1551.818 797.191 1547.950 C 779.482 1539.044, 761.732 1535.499, 738.692 1536.266 C 722.766 1536.796, 715.792 1538.134, 706.247 1542.493 C 695.812 1547.259, 685.939 1559.468, 683.196 1571 C 680.876 1580.751, 669.861 1650.828, 669.831 1656.022 C 669.745 1671.280, 677.304 1680.627, 694.634 1686.687 C 702.108 1689.301, 703.422 1689.439, 721 1689.462 C 735.392 1689.481, 741.387 1689.074, 748 1687.627 C 758.125 1685.411, 771.315 1680.874, 779.221 1676.886 C 782.368 1675.299, 785.181 1674, 785.471 1674 C 785.762 1674, 786 1676.465, 786 1679.477 C 786 1687.688, 787.343 1688.282, 804.937 1687.847 C 816.417 1687.562, 819.234 1687.197, 820.617 1685.813 C 821.914 1684.514, 825.932 1661.525, 838.094 1585.813 C 846.779 1531.741, 854.154 1486.055, 854.481 1484.288 C 854.932 1481.853, 854.584 1480.584, 853.038 1479.038 C 851.165 1477.165, 849.809 1477.005, 836.250 1477.068 C 828.066 1477.105, 820.524 1477.607, 819.308 1478.194 M 3901.315 1478.007 C 3900.114 1478.491, 3898.698 1479.700, 3898.170 1480.694 C 3897.642 1481.687, 3889.918 1527.890, 3881.007 1583.366 C 3866.025 1676.633, 3864.927 1684.356, 3866.435 1685.866 C 3867.739 1687.173, 3870.691 1687.567, 3881.186 1687.833 C 3896.704 1688.226, 3900.528 1687.663, 3902.436 1684.703 C 3903.869 1682.480, 3935 1489.197, 3935 1482.521 C 3935 1480.133, 3934.404 1478.752, 3933.066 1478.035 C 3930.726 1476.783, 3904.412 1476.759, 3901.315 1478.007 M 911.598 1479.305 C 910.199 1480.328, 909.175 1484.041, 907.386 1494.578 C 904.704 1510.380, 904.496 1514.096, 906.200 1515.800 C 907.032 1516.632, 912.244 1517, 923.200 1517 C 937.073 1517, 939.219 1516.781, 940.797 1515.203 C 942.095 1513.905, 943.235 1509.246, 944.899 1498.445 C 946.166 1490.216, 947.044 1482.363, 946.851 1480.992 L 946.500 1478.500 929.973 1478.227 C 917.322 1478.018, 913.012 1478.271, 911.598 1479.305 M 2930.568 1479.327 C 2929.125 1480.382, 2928.156 1483.924, 2926.387 1494.600 C 2923.734 1510.618, 2923.537 1514.137, 2925.200 1515.800 C 2926.032 1516.632, 2931.244 1517, 2942.200 1517 C 2955.965 1517, 2958.227 1516.773, 2959.765 1515.235 C 2961.705 1513.295, 2966.455 1486.914, 2965.840 1481.494 L 2965.500 1478.500 2948.973 1478.227 C 2936.196 1478.016, 2932.019 1478.265, 2930.568 1479.327 M 4337.564 1480.262 C 4336.749 1481.506, 4335.159 1488.369, 4334.031 1495.512 C 4332.904 1502.655, 4331.737 1509.682, 4331.438 1511.126 C 4330.361 1516.339, 4332.439 1517.002, 4349.821 1516.985 C 4358.445 1516.976, 4365.995 1516.639, 4366.600 1516.235 C 4368.794 1514.770, 4369.756 1511.231, 4372.022 1496.300 C 4373.915 1483.820, 4374.098 1480.822, 4373.041 1479.550 C 4371.976 1478.266, 4368.952 1478, 4355.401 1478 C 4339.518 1478, 4339.003 1478.065, 4337.564 1480.262 M 3526.500 1482.080 C 3505.093 1484.611, 3486.279 1491.910, 3476.468 1501.488 C 3468.994 1508.786, 3465.626 1516.344, 3463.046 1531.611 C 3459.391 1553.246, 3460.534 1558.691, 3470.917 1569.096 C 3480.051 1578.249, 3486.261 1580.932, 3527.383 1593.485 C 3566.452 1605.412, 3570.448 1606.836, 3576.472 1610.981 C 3582.987 1615.463, 3583.646 1618.053, 3581.523 1630.819 C 3579.314 1644.098, 3577.480 1648.456, 3572.033 1653.363 C 3562.666 1661.800, 3552.041 1664.378, 3526.500 1664.408 C 3501.267 1664.437, 3490.170 1661.744, 3483.666 1654.014 C 3479.978 1649.632, 3479.440 1645.020, 3481.279 1633.568 C 3483.573 1619.284, 3484.479 1620, 3464.120 1620 C 3449.374 1620, 3447.117 1620.215, 3445.742 1621.750 C 3443.678 1624.055, 3440.635 1644.787, 3441.286 1652.113 C 3442.972 1671.073, 3459.758 1682.892, 3492.500 1688.174 C 3505.141 1690.213, 3545.877 1689.879, 3559.500 1687.624 C 3591.229 1682.373, 3609.869 1670.796, 3616.400 1652.282 C 3618.227 1647.106, 3622 1621.669, 3622 1614.535 C 3622 1601.197, 3613.733 1589.768, 3599 1582.736 C 3594.875 1580.767, 3573.500 1573.665, 3551.500 1566.953 C 3529.500 1560.242, 3509.925 1553.954, 3508 1552.982 C 3501.743 1549.820, 3500.483 1547.607, 3500.634 1540.042 C 3501.143 1514.477, 3516.738 1505.050, 3556.500 1506.272 C 3575.900 1506.868, 3584.240 1509.005, 3590.119 1514.883 C 3595.139 1519.904, 3595.998 1523.668, 3594.491 1534.037 C 3593.815 1538.692, 3593.489 1543.097, 3593.767 1543.827 C 3594.682 1546.227, 3598.966 1547, 3611.315 1546.994 C 3623.923 1546.989, 3630.439 1545.903, 3631.298 1543.666 C 3632.774 1539.820, 3634.173 1526.257, 3633.860 1518.841 C 3633.548 1511.485, 3633.094 1509.684, 3630.489 1505.471 C 3624.157 1495.232, 3611.503 1488.080, 3592.483 1483.989 C 3584.231 1482.214, 3578.340 1481.780, 3558.500 1481.488 C 3545.300 1481.293, 3530.900 1481.560, 3526.500 1482.080 M 120.389 1483.980 C 119.228 1484.449, 117.961 1485.658, 117.574 1486.666 C 116.512 1489.430, 86 1678.902, 86 1682.730 C 86 1685.390, 86.520 1686.247, 88.618 1687.045 C 90.288 1687.680, 116.149 1687.942, 160.082 1687.770 C 222.990 1687.523, 229.074 1687.355, 230.608 1685.821 C 232.373 1684.055, 234.901 1673.050, 234.963 1666.857 C 234.988 1664.433, 234.471 1663.011, 233.418 1662.607 C 232.548 1662.273, 208.698 1662, 180.418 1662 C 131.434 1662, 129 1661.914, 129 1660.187 C 129 1659.190, 135.075 1620.689, 142.500 1574.629 C 149.925 1528.570, 156 1489.576, 156 1487.977 C 156 1486.127, 155.297 1484.694, 154.066 1484.035 C 151.749 1482.795, 123.436 1482.748, 120.389 1483.980 M 1560.665 1484.755 C 1558.507 1486.084, 1544.850 1509.893, 1503.450 1584.500 C 1473.540 1638.400, 1449.053 1683.299, 1449.034 1684.275 C 1448.975 1687.325, 1453.685 1688.179, 1468.647 1687.830 C 1480.716 1687.548, 1483.094 1687.228, 1484.836 1685.650 C 1485.960 1684.632, 1492.837 1673.044, 1500.118 1659.900 L 1513.356 1636 1554.428 1636.006 L 1595.500 1636.012 1600.827 1659.756 C 1604.642 1676.764, 1606.707 1684.067, 1608.104 1685.500 C 1609.899 1687.340, 1611.373 1687.500, 1626.492 1687.500 C 1640.686 1687.500, 1643.163 1687.266, 1644.644 1685.785 C 1646.264 1684.164, 1645.129 1678.855, 1624.121 1589.785 C 1611.890 1537.928, 1601.216 1493.120, 1600.402 1490.210 C 1599.276 1486.187, 1598.316 1484.691, 1596.395 1483.960 C 1595.006 1483.432, 1587.037 1483.002, 1578.685 1483.005 C 1565.997 1483.010, 1563.034 1483.297, 1560.665 1484.755 M 1930.823 1502.664 C 1929.351 1502.914, 1927.634 1503.736, 1927.008 1504.490 C 1926.382 1505.245, 1924.647 1513.205, 1923.152 1522.181 L 1920.433 1538.500 1909.467 1539.234 C 1889.969 1540.540, 1890.374 1540.274, 1889.347 1552.424 C 1888.453 1563.004, 1888.447 1563, 1903.622 1563 C 1910.430 1563, 1916 1563.393, 1916 1563.872 C 1916 1564.352, 1913.075 1583.067, 1909.500 1605.462 C 1902.931 1646.614, 1902.007 1656.908, 1904.216 1664.384 C 1905.997 1670.413, 1914.070 1678.131, 1921.531 1680.939 C 1933.313 1685.373, 1939.510 1686.215, 1964.044 1686.719 C 1984.959 1687.148, 1987.738 1687.020, 1988.940 1685.573 C 1990.905 1683.204, 1992.681 1666.526, 1991.163 1664.696 C 1990.309 1663.667, 1986.140 1663.085, 1975.919 1662.566 C 1950.239 1661.262, 1942 1657.253, 1942 1646.058 C 1942 1642.908, 1952.592 1575.326, 1954.586 1565.750 L 1955.159 1563 1977.579 1563 C 2004.318 1563, 2003.420 1563.374, 2004.503 1551.807 C 2004.884 1547.748, 2005.039 1543.318, 2004.848 1541.963 L 2004.500 1539.500 1981.750 1539.231 C 1966.498 1539.051, 1959 1538.612, 1959 1537.898 C 1959 1537.312, 1960.175 1529.849, 1961.610 1521.313 C 1964.954 1501.432, 1965.805 1502.552, 1947.216 1502.355 C 1939.672 1502.275, 1932.295 1502.414, 1930.823 1502.664 M 2800.225 1502.709 C 2796.511 1503.422, 2795.246 1506.708, 2792.556 1522.636 C 2791.150 1530.961, 2790 1537.983, 2790 1538.240 C 2790 1538.497, 2784.262 1539.024, 2777.250 1539.411 C 2762.986 1540.197, 2760.555 1541.134, 2759.657 1546.193 C 2756.685 1562.935, 2756.738 1563, 2773.590 1563 C 2785.984 1563, 2786.036 1563.010, 2785.528 1565.250 C 2785.248 1566.487, 2782.054 1586.175, 2778.432 1609 C 2771.185 1654.662, 2771.001 1658.376, 2775.533 1667.650 C 2779.449 1675.665, 2787.017 1680.514, 2801.231 1684.117 C 2807.946 1685.819, 2813.675 1686.309, 2831.709 1686.725 C 2843.924 1687.007, 2855.012 1686.963, 2856.349 1686.627 C 2859.324 1685.880, 2859.606 1685.180, 2860.988 1675.085 C 2862.609 1663.250, 2862.829 1663.443, 2846.796 1662.627 C 2824.138 1661.474, 2816.184 1658.921, 2812.632 1651.666 L 2810.763 1647.849 2817.632 1605.425 L 2824.500 1563.001 2846.639 1563.001 C 2873.757 1563, 2872.708 1563.465, 2874.251 1550.745 C 2875.076 1543.942, 2875.028 1541.738, 2874.029 1540.535 C 2872.953 1539.238, 2869.267 1539, 2850.310 1539 C 2829.412 1539, 2827.899 1538.879, 2828.359 1537.250 C 2829.674 1532.594, 2833.110 1508.833, 2832.825 1506.374 C 2832.594 1504.386, 2831.779 1503.380, 2830 1502.889 C 2827.285 1502.140, 2803.926 1501.999, 2800.225 1502.709 M 4207.283 1503.064 C 4203.481 1504.218, 4203.186 1505.102, 4199.947 1525.111 L 4197.743 1538.722 4185.197 1539.419 C 4178.297 1539.802, 4171.808 1540.567, 4170.778 1541.119 C 4168.315 1542.437, 4167.202 1545.571, 4166.393 1553.472 C 4165.431 1562.862, 4165.637 1563, 4180.622 1563 C 4192.140 1563, 4193 1563.133, 4193 1564.910 C 4193 1565.961, 4190.075 1585.144, 4186.500 1607.538 C 4182.925 1629.933, 4180 1650.591, 4180 1653.446 C 4180 1666.009, 4185.491 1674.533, 4197.061 1679.934 C 4207.947 1685.015, 4215.120 1686.119, 4241 1686.695 C 4263.024 1687.185, 4264.602 1687.101, 4266.130 1685.359 C 4267.805 1683.447, 4270.075 1669.032, 4269.219 1665.739 C 4268.646 1663.534, 4267.811 1663.383, 4249.500 1662.169 C 4228.635 1660.786, 4220.932 1657.485, 4219.390 1649.266 C 4218.982 1647.091, 4221.173 1631.088, 4225.528 1604.442 L 4232.300 1563 4254.539 1563 C 4281.599 1563, 4280.408 1563.531, 4282.062 1550.720 C 4282.943 1543.901, 4282.923 1541.612, 4281.975 1540.470 C 4280.968 1539.256, 4276.835 1539, 4258.269 1539 L 4235.783 1539 4236.316 1536.750 C 4236.610 1535.513, 4237.877 1528.084, 4239.132 1520.243 C 4242.102 1501.689, 4242.837 1502.574, 4224.216 1502.294 C 4216.672 1502.180, 4209.052 1502.527, 4207.283 1503.064 M 1571.077 1523.554 C 1565 1540.976, 1557.089 1557.544, 1542.696 1583 L 1527.146 1610.500 1558.225 1610.764 C 1575.319 1610.910, 1589.486 1610.848, 1589.707 1610.626 C 1589.929 1610.404, 1587.207 1597.910, 1583.658 1582.861 C 1576.018 1550.462, 1576.126 1551.077, 1574.654 1531.758 L 1573.500 1516.608 1571.077 1523.554 M 338 1536.634 C 322.681 1538.541, 307.664 1542.821, 299.374 1547.644 C 293.721 1550.933, 285.359 1559.998, 283.086 1565.299 C 280.640 1571.006, 280.074 1573.972, 273.411 1616 C 267.436 1653.695, 267.128 1659.253, 270.611 1666.592 C 278.420 1683.049, 304.769 1691.025, 347 1689.715 C 380.689 1688.670, 400.038 1682.149, 410.621 1668.274 C 414.900 1662.664, 418.034 1653.986, 418.715 1645.859 C 419.458 1636.996, 418.965 1636.747, 401.525 1637.174 C 385.647 1637.563, 384.851 1637.997, 383.026 1647.272 C 381.317 1655.960, 376.325 1660.903, 365.980 1664.151 C 359.355 1666.232, 356.557 1666.500, 341.500 1666.497 C 322.681 1666.493, 315.702 1665.145, 310.096 1660.427 C 305.194 1656.303, 304.904 1653.242, 307.742 1635.651 L 310.258 1620.064 365.594 1619.782 C 416.058 1619.525, 421.079 1619.351, 422.625 1617.804 C 423.825 1616.603, 425.287 1610.183, 427.633 1595.804 C 429.454 1584.637, 430.957 1573.669, 430.972 1571.432 C 431.081 1555.379, 419.133 1544.211, 396.107 1538.844 C 389.118 1537.215, 383.176 1536.778, 364.500 1536.518 C 351.850 1536.342, 339.925 1536.395, 338 1536.634 M 514 1537.497 C 501.218 1540.070, 491.807 1545.044, 484.578 1553.045 C 477.254 1561.152, 476.191 1564.959, 468.822 1609.500 C 465.091 1632.050, 462.030 1653.148, 462.019 1656.384 C 461.978 1668.973, 467.259 1677.323, 479.030 1683.281 C 489.928 1688.797, 499.774 1690.390, 518.500 1689.669 C 538.771 1688.888, 552.641 1685.625, 570.875 1677.348 C 574.931 1675.506, 578.434 1674, 578.659 1674 C 578.885 1674, 578.795 1676.138, 578.460 1678.750 C 577.436 1686.736, 578.561 1687.437, 593.048 1687.837 C 607.641 1688.239, 611.549 1687.638, 613.420 1684.703 C 614.214 1683.457, 619.717 1651.928, 626.090 1612.103 L 637.355 1541.706 635.067 1539.853 C 633.084 1538.248, 630.921 1538, 618.889 1538 C 602.669 1538, 601.960 1538.350, 599.946 1547.353 L 598.706 1552.890 591.603 1549.002 C 582.696 1544.125, 569.145 1539.559, 557.615 1537.548 C 546.827 1535.667, 523.226 1535.639, 514 1537.497 M 1070.097 1537.612 C 1060.211 1539.269, 1043.653 1544.632, 1035.107 1548.946 C 1031.780 1550.626, 1028.815 1552, 1028.520 1552 C 1028.224 1552, 1028.266 1549.589, 1028.612 1546.641 C 1029.552 1538.645, 1028.217 1538, 1010.732 1538 C 997.389 1538, 996.824 1538.085, 994.455 1540.455 C 993.105 1541.805, 992 1543.374, 992 1543.943 C 992 1544.512, 987.050 1575.302, 981 1612.365 C 974.950 1649.428, 970 1681.169, 970 1682.901 C 970 1687.285, 972.512 1688, 987.916 1688 C 1003.102 1688, 1006.504 1687.093, 1007.895 1682.670 C 1008.443 1680.927, 1012.357 1657.225, 1016.592 1630 C 1020.828 1602.775, 1024.639 1579.559, 1025.061 1578.409 C 1026.029 1575.776, 1042.410 1568.822, 1055.944 1565.299 C 1067.448 1562.305, 1086.433 1561.609, 1094.298 1563.893 C 1099.852 1565.506, 1104.588 1569.511, 1105.570 1573.424 C 1105.995 1575.115, 1103.039 1596.368, 1097.795 1629.326 C 1093.142 1658.572, 1089.546 1683.322, 1089.804 1684.327 C 1090.599 1687.423, 1094.872 1688.175, 1109.716 1687.830 C 1121.557 1687.555, 1124.220 1687.212, 1125.657 1685.773 C 1126.986 1684.443, 1129.403 1671.453, 1136.173 1629.273 C 1141.008 1599.148, 1144.972 1572.444, 1144.982 1569.932 C 1145.015 1561.715, 1142.370 1555.237, 1136.667 1549.564 C 1126.889 1539.836, 1114.153 1535.946, 1092.590 1536.102 C 1084.841 1536.158, 1074.719 1536.837, 1070.097 1537.612 M 1231.500 1537.629 C 1222.950 1539.419, 1211.696 1544.572, 1206.639 1549.012 C 1201.647 1553.395, 1197.201 1559.998, 1194.973 1566.336 C 1192.798 1572.524, 1180 1650.048, 1180 1657.035 C 1180 1664.664, 1183.278 1672.051, 1189.065 1677.464 C 1197.923 1685.750, 1207.649 1688.884, 1227 1689.686 C 1249.184 1690.607, 1268.374 1686.892, 1287.795 1677.920 C 1294.418 1674.860, 1296.012 1674.427, 1295.628 1675.789 C 1295.363 1676.730, 1294.182 1683.575, 1293.003 1691 C 1290.186 1708.745, 1289.640 1710.267, 1284.453 1714.832 C 1275.772 1722.474, 1265.367 1723.957, 1220.250 1723.982 C 1183.800 1724.003, 1185.964 1723.355, 1184.030 1734.822 C 1182.526 1743.740, 1182.889 1746.125, 1186 1747.777 C 1189.745 1749.766, 1262.610 1748.821, 1276.500 1746.604 C 1309.997 1741.256, 1325.296 1729.368, 1329.399 1705.499 C 1333.332 1682.622, 1355 1544.665, 1355 1542.504 C 1355 1541.121, 1354.165 1539.623, 1353.066 1539.035 C 1351.995 1538.462, 1344.849 1538, 1337.066 1538 C 1320.647 1538, 1319.964 1538.334, 1317.946 1547.353 L 1316.706 1552.890 1309.603 1549.002 C 1300.696 1544.125, 1287.145 1539.559, 1275.615 1537.548 C 1264.361 1535.586, 1241.053 1535.628, 1231.500 1537.629 M 2095 1537.078 C 2061.619 1541.310, 2042.321 1554.178, 2038.126 1575 C 2035.679 1587.145, 2026 1650.586, 2026 1654.478 C 2026 1669.106, 2038.181 1680.512, 2059.500 1685.847 C 2082.502 1691.604, 2119.986 1691.447, 2143.570 1685.495 C 2162.302 1680.768, 2176.403 1670.556, 2180.939 1658.433 C 2183.621 1651.265, 2195.008 1580.530, 2194.978 1571.226 C 2194.951 1563.046, 2192.748 1557.694, 2187.184 1552.294 C 2179.353 1544.695, 2165.195 1539.277, 2147.500 1537.109 C 2137.284 1535.857, 2104.781 1535.838, 2095 1537.078 M 2327.500 1537.542 C 2317.156 1539.271, 2304.903 1543.276, 2295.489 1548.006 L 2288 1551.768 2288 1545.919 C 2288 1541.160, 2287.640 1539.877, 2286.066 1539.035 C 2283.647 1537.741, 2259.009 1537.666, 2255.651 1538.943 C 2254.287 1539.461, 2252.915 1540.699, 2252.603 1541.693 C 2251.418 1545.461, 2230 1678.674, 2230 1682.274 C 2230 1687.369, 2231.975 1688, 2247.916 1688 C 2261.857 1688, 2266.556 1686.974, 2267.594 1683.705 C 2267.965 1682.534, 2271.943 1658.159, 2276.432 1629.538 L 2284.595 1577.500 2290.548 1574.300 C 2293.821 1572.541, 2301.225 1569.530, 2307 1567.611 C 2329.823 1560.027, 2351.595 1560.395, 2359.703 1568.503 C 2362.279 1571.079, 2363.004 1572.642, 2363.018 1575.650 C 2363.028 1577.767, 2359.330 1603.011, 2354.800 1631.746 C 2346.955 1681.517, 2346.647 1684.076, 2348.315 1685.746 C 2349.768 1687.202, 2352.312 1687.557, 2363.280 1687.834 C 2377.272 1688.188, 2383.338 1687.167, 2384.450 1684.268 C 2384.961 1682.938, 2402 1579.076, 2402 1577.295 C 2402 1577.063, 2406.263 1574.854, 2411.473 1572.386 C 2425.612 1565.688, 2437.845 1562.778, 2452.500 1562.625 C 2466.606 1562.478, 2471.981 1563.781, 2476.690 1568.490 C 2479.448 1571.248, 2480 1572.545, 2480 1576.262 C 2480 1578.716, 2476.383 1603.397, 2471.963 1631.109 C 2467.542 1658.821, 2464.055 1682.384, 2464.213 1683.472 C 2464.720 1686.968, 2468.690 1687.970, 2482.101 1687.985 C 2495.168 1688.001, 2500.405 1686.994, 2501.452 1684.266 C 2502.433 1681.709, 2520 1572.157, 2520 1568.595 C 2520 1557.860, 2513.201 1548.176, 2501.685 1542.509 C 2491.937 1537.713, 2483.109 1536.037, 2467.500 1536.021 C 2443.136 1535.996, 2423.361 1540.994, 2405.845 1551.604 L 2400.190 1555.030 2394.337 1549.177 C 2388.023 1542.863, 2382.137 1540.020, 2370 1537.425 C 2361.796 1535.670, 2338.312 1535.735, 2327.500 1537.542 M 2622.500 1537.137 C 2602.820 1539.623, 2587.303 1545.708, 2577.989 1554.591 C 2568.283 1563.850, 2567.838 1565.297, 2560.462 1611.622 C 2556.908 1633.944, 2554 1653.205, 2554 1654.423 C 2554 1659.890, 2557.263 1667.366, 2561.735 1672.148 C 2572.890 1684.073, 2595.091 1689.991, 2628.699 1689.997 C 2662.640 1690.003, 2686.243 1683.942, 2699.516 1671.812 C 2709.537 1662.653, 2710.164 1660.654, 2717.604 1614.191 C 2722.351 1584.544, 2723.953 1572.174, 2723.507 1568.613 C 2721.430 1552.029, 2706.486 1541.702, 2678.500 1537.510 C 2667.437 1535.852, 2634.410 1535.633, 2622.500 1537.137 M 3230 1537.125 C 3211.994 1539.202, 3195.732 1545.429, 3187.011 1553.586 C 3177.713 1562.284, 3176.843 1565.153, 3169.496 1611.354 C 3165.923 1633.824, 3163 1653.430, 3163 1654.923 C 3163 1660.859, 3166.117 1668.210, 3170.720 1673.132 C 3181.149 1684.281, 3202.700 1690, 3234.287 1690 C 3275.964 1690, 3300.469 1681.048, 3309.539 1662.510 C 3312.910 1655.619, 3315.444 1643.269, 3314.094 1640.306 C 3312.683 1637.211, 3310.143 1636.782, 3295.508 1637.166 C 3281.048 1637.547, 3279.868 1638.172, 3278.595 1646.130 C 3276.265 1660.704, 3263.397 1667.001, 3236 1666.975 C 3218.735 1666.959, 3206.486 1663.484, 3202.886 1657.580 C 3200.506 1653.677, 3200.581 1649.687, 3203.342 1633.500 L 3205.559 1620.500 3260.529 1620 C 3290.763 1619.725, 3316.270 1619.121, 3317.212 1618.658 C 3318.153 1618.194, 3319.155 1617.069, 3319.438 1616.158 C 3320.836 1611.649, 3325.983 1575.739, 3325.982 1570.500 C 3325.978 1552.437, 3309.833 1540.680, 3280.026 1537.036 C 3270.124 1535.825, 3240.813 1535.877, 3230 1537.125 M 3731 1537.018 C 3711.301 1539.697, 3694.898 1545.831, 3685.772 1553.933 C 3682.650 1556.705, 3679.866 1560.570, 3677.574 1565.315 C 3674.362 1571.963, 3673.644 1575.413, 3667.953 1611.500 C 3660.985 1655.694, 3660.813 1659.929, 3665.671 1667.785 C 3671.365 1676.996, 3684.321 1684.027, 3702 1687.500 C 3713.447 1689.749, 3743.477 1690.604, 3758.086 1689.097 C 3785.758 1686.242, 3804.185 1678.312, 3813.036 1665.448 C 3814.711 1663.014, 3816.734 1659.172, 3817.532 1656.910 C 3819.452 1651.467, 3831 1578.613, 3831 1571.940 C 3831 1563.270, 3829.197 1559.112, 3822.544 1552.438 C 3815.746 1545.620, 3808.694 1542.255, 3794 1538.817 C 3787.074 1537.196, 3781.055 1536.764, 3761.500 1536.481 C 3748.300 1536.290, 3734.575 1536.532, 3731 1537.018 M 4466 1537.078 C 4435.735 1540.915, 4417.009 1551.716, 4410.654 1569 C 4409.744 1571.475, 4406.268 1590.600, 4402.930 1611.500 C 4395.977 1655.027, 4395.780 1659.875, 4400.649 1667.751 C 4406.365 1676.996, 4419.297 1684.022, 4437 1687.500 C 4441.934 1688.470, 4453.087 1689.402, 4463.586 1689.722 C 4493.093 1690.623, 4514.100 1687.532, 4529.500 1680.023 C 4541.939 1673.957, 4549.017 1666.871, 4552.503 1656.993 C 4554.393 1651.634, 4566 1578.441, 4566 1571.877 C 4566 1564.138, 4564.105 1559.276, 4558.846 1553.522 C 4551.067 1545.011, 4537.262 1539.474, 4517.702 1537.022 C 4508.252 1535.837, 4475.507 1535.872, 4466 1537.078 M 4700.500 1537.581 C 4689.605 1539.489, 4675.041 1544.198, 4666 1548.736 L 4658.500 1552.500 4658.848 1546.559 C 4659.337 1538.223, 4658.883 1538, 4641.420 1538 C 4629.340 1538, 4626.896 1538.263, 4625.041 1539.766 C 4623.071 1541.361, 4621.751 1548.318, 4611.354 1611.894 C 4605.026 1650.594, 4600.111 1683.305, 4600.432 1684.585 C 4601.221 1687.729, 4604.758 1688.280, 4621.403 1687.850 C 4632.482 1687.563, 4635.238 1687.192, 4636.629 1685.801 C 4637.921 1684.508, 4640.165 1672.443, 4646.023 1635.301 C 4650.255 1608.461, 4654.026 1584.419, 4654.402 1581.875 L 4655.085 1577.251 4663.859 1573.174 C 4692.578 1559.831, 4726.769 1558.371, 4733.970 1570.182 C 4735.082 1572.007, 4735.994 1574.899, 4735.996 1576.609 C 4735.998 1578.319, 4732.400 1602.261, 4728 1629.814 C 4723.600 1657.366, 4720 1681.291, 4720 1682.979 C 4720 1687.470, 4722.958 1688.196, 4739.723 1687.820 C 4752.394 1687.535, 4754.162 1687.281, 4755.887 1685.500 C 4757.487 1683.848, 4759.321 1674.097, 4766.422 1629.500 C 4771.151 1599.800, 4775.011 1572.575, 4775 1569 C 4774.953 1553.457, 4763.008 1541.667, 4743 1537.416 C 4734.644 1535.640, 4711.056 1535.732, 4700.500 1537.581 M 4872.500 1537.076 C 4847.833 1540.388, 4830.529 1549.601, 4825.074 1562.327 C 4820.979 1571.881, 4819.823 1589.813, 4822.871 1596.521 C 4825.290 1601.846, 4833.638 1609.224, 4840.212 1611.846 C 4843.120 1613.006, 4859.450 1617.760, 4876.500 1622.410 C 4910.383 1631.652, 4913.209 1632.622, 4918.005 1636.657 C 4921.235 1639.376, 4921.248 1639.423, 4920.611 1646.272 C 4919.831 1654.667, 4918.086 1658.255, 4913.222 1661.466 C 4906.136 1666.143, 4898.309 1667.482, 4878 1667.491 C 4857.605 1667.501, 4850.671 1666.225, 4844.114 1661.256 L 4840.727 1658.690 4841.330 1650.882 C 4842.191 1639.717, 4842.285 1639.777, 4824.390 1640.179 C 4813.126 1640.431, 4809.737 1640.830, 4808.525 1642.043 C 4806.072 1644.501, 4804.342 1658.861, 4805.881 1663.996 C 4807.810 1670.436, 4814.111 1676.524, 4823.432 1680.952 C 4836.827 1687.317, 4852.496 1690, 4876.263 1690 C 4916.248 1690, 4942.133 1681.575, 4951.558 1665.492 C 4953.284 1662.546, 4954.458 1658.106, 4955.546 1650.408 C 4957.844 1634.143, 4957.661 1628.804, 4954.631 1623.633 C 4948.901 1613.855, 4940.845 1610.300, 4900 1599.520 C 4863.807 1589.968, 4863.084 1589.734, 4859.527 1586.438 C 4857.417 1584.482, 4857.009 1583.220, 4857.056 1578.798 C 4857.228 1562.716, 4866.274 1557.653, 4895 1557.562 C 4908.364 1557.519, 4911.487 1557.822, 4917.663 1559.758 C 4922.866 1561.390, 4925.558 1562.875, 4927.501 1565.184 C 4930.061 1568.226, 4930.147 1568.695, 4929.492 1576.095 C 4928.613 1586.024, 4928.571 1586, 4946.863 1586 C 4964.397 1586, 4963.557 1586.606, 4965.406 1572.611 C 4967.544 1556.420, 4954.694 1544.311, 4929.071 1538.371 C 4921.133 1536.531, 4883.053 1535.659, 4872.500 1537.076 M 903.302 1539.012 C 901.912 1539.572, 900.744 1541.294, 900.122 1543.698 C 899.581 1545.789, 894.124 1578.275, 887.994 1615.888 C 877.751 1678.737, 876.979 1684.408, 878.457 1685.888 C 879.734 1687.168, 882.769 1687.569, 893.186 1687.833 C 908.704 1688.226, 912.528 1687.663, 914.434 1684.703 C 915.561 1682.954, 938.045 1547.158, 938.009 1542.321 C 938.004 1541.673, 937.293 1540.436, 936.429 1539.571 C 935.136 1538.279, 932.249 1538.011, 920.179 1538.063 C 912.105 1538.098, 904.511 1538.525, 903.302 1539.012 M 1703.272 1539.211 C 1702.047 1539.802, 1700.818 1541.009, 1700.541 1541.893 C 1700.264 1542.777, 1695.955 1568.700, 1690.964 1599.500 C 1684.624 1638.630, 1682.061 1656.856, 1682.456 1660 C 1684.127 1673.301, 1694.051 1682.893, 1711.060 1687.647 C 1720.240 1690.212, 1749.053 1690.219, 1760.796 1687.659 C 1771.715 1685.277, 1780.861 1682.109, 1789.750 1677.629 L 1797 1673.975 1797 1680.012 C 1797 1685.573, 1797.203 1686.127, 1799.565 1687.025 C 1802.415 1688.108, 1822.964 1688.357, 1827.911 1687.368 C 1829.649 1687.020, 1831.511 1685.914, 1832.048 1684.910 C 1833.451 1682.288, 1856.122 1542.482, 1855.435 1540.691 C 1854.569 1538.434, 1851.747 1538.029, 1836.797 1538.014 C 1823.335 1538, 1818.653 1538.857, 1817.631 1541.519 C 1817.368 1542.205, 1813.406 1566.656, 1808.826 1595.854 L 1800.500 1648.942 1791.934 1652.922 C 1758.164 1668.613, 1722 1666.870, 1722 1649.551 C 1722 1647.188, 1725.600 1622.893, 1730 1595.562 C 1734.400 1568.231, 1738 1544.564, 1738 1542.970 C 1738 1541.127, 1737.295 1539.693, 1736.066 1539.035 C 1733.510 1537.668, 1706.166 1537.814, 1703.272 1539.211 M 2922.389 1538.980 C 2921.228 1539.449, 2919.975 1540.624, 2919.604 1541.590 C 2919.233 1542.557, 2913.742 1575.062, 2907.401 1613.825 C 2896.843 1678.369, 2896.007 1684.436, 2897.469 1685.901 C 2898.732 1687.165, 2901.812 1687.570, 2912.186 1687.833 C 2927.697 1688.226, 2931.524 1687.662, 2933.447 1684.703 C 2934.677 1682.812, 2957 1547.503, 2957 1541.943 C 2957 1540.913, 2956.130 1539.605, 2955.066 1539.035 C 2952.752 1537.797, 2925.432 1537.750, 2922.389 1538.980 M 2992.009 1539.290 C 2990.639 1539.983, 2989.356 1541.392, 2989.158 1542.421 C 2988.959 1543.449, 2997.919 1576.215, 3009.067 1615.234 C 3028.212 1682.241, 3029.479 1686.232, 3031.906 1687.154 C 3033.324 1687.693, 3041.526 1687.990, 3050.212 1687.816 C 3064.392 1687.531, 3066.144 1687.302, 3067.909 1685.500 C 3071.264 1682.074, 3155 1544.046, 3155 1541.942 C 3155 1540.724, 3154.003 1539.572, 3152.435 1538.975 C 3148.824 1537.602, 3123.677 1537.734, 3120.587 1539.142 C 3118.800 1539.956, 3110.116 1553.389, 3090.364 1585.892 C 3075.120 1610.977, 3060.768 1635.453, 3058.472 1640.285 L 3054.296 1649.069 3053.692 1642.601 C 3052.813 1633.194, 3027.451 1540.825, 3025.314 1539.250 C 3022.956 1537.512, 2995.457 1537.545, 2992.009 1539.290 M 3979.954 1539.836 C 3977.880 1541.515, 3976.934 1546.319, 3968.873 1596.086 C 3960.022 1650.733, 3959.020 1659.819, 3961.155 1666.101 C 3964.254 1675.220, 3972.997 1682.623, 3985.368 1686.604 C 4001.471 1691.786, 4029.634 1690.851, 4050 1684.458 C 4056.608 1682.384, 4070.083 1676.681, 4074 1674.300 C 4074.275 1674.133, 4074.500 1676.778, 4074.500 1680.179 L 4074.500 1686.363 4077.932 1687.257 C 4079.820 1687.749, 4087.118 1688.005, 4094.149 1687.826 C 4104.284 1687.568, 4107.269 1687.165, 4108.549 1685.883 C 4109.737 1684.692, 4113.173 1665.831, 4121.574 1614.383 C 4127.849 1575.947, 4132.988 1543.503, 4132.992 1542.285 C 4133.005 1538.682, 4130.010 1538, 4114.177 1538 C 4101.188 1538, 4098.925 1538.240, 4096.967 1539.826 C 4094.910 1541.492, 4094.038 1545.927, 4086.997 1590.576 C 4082.753 1617.484, 4078.975 1641.571, 4078.601 1644.103 L 4077.922 1648.706 4069.211 1652.763 C 4052.708 1660.449, 4040.451 1663.356, 4024.500 1663.368 C 4014.767 1663.375, 4012.846 1663.076, 4007.821 1660.776 C 4001.896 1658.063, 3999 1654.428, 3999 1649.703 C 3999 1647.570, 4014.176 1551.510, 4015.571 1544.815 C 4015.969 1542.907, 4015.533 1541.533, 4014.065 1540.065 C 4012.163 1538.163, 4010.823 1538, 3997.111 1538 C 3984.155 1538, 3981.927 1538.238, 3979.954 1539.836 M 4329.082 1539.750 C 4327.167 1541.317, 4325.725 1548.964, 4315.307 1612.799 C 4304.352 1679.918, 4303.769 1684.198, 4305.371 1685.799 C 4306.829 1687.258, 4309.339 1687.500, 4323 1687.500 C 4336.695 1687.500, 4339.168 1687.260, 4340.639 1685.790 C 4341.961 1684.468, 4344.930 1667.909, 4353.729 1612.793 L 4365.108 1541.506 4362.943 1539.753 C 4361.098 1538.259, 4358.595 1538, 4346 1538 C 4333.407 1538, 4330.905 1538.259, 4329.082 1539.750 M 339.500 1560.486 C 331.632 1562.227, 328.206 1563.606, 324.253 1566.620 C 319.784 1570.029, 318.119 1573.685, 316.421 1583.821 C 315.621 1588.595, 314.740 1593.513, 314.464 1594.750 L 313.962 1597 352.771 1597 L 391.581 1597 393.393 1586.105 C 394.390 1580.112, 394.912 1573.876, 394.554 1572.245 C 393.310 1566.581, 386.393 1561.913, 376.546 1560.093 C 368.568 1558.618, 346.904 1558.848, 339.500 1560.486 M 3234.389 1560.488 C 3224.270 1562.690, 3217.676 1566.858, 3214.452 1573.092 C 3213.051 1575.802, 3210.063 1590.734, 3210.017 1595.250 C 3210.001 1596.887, 3212.488 1597, 3248.393 1597 L 3286.786 1597 3287.921 1590.750 C 3290.168 1578.376, 3290.364 1572.604, 3288.651 1569.291 C 3284.989 1562.210, 3273.919 1558.999, 3253.500 1559.097 C 3246.350 1559.131, 3237.750 1559.757, 3234.389 1560.488 M 2100.181 1561.506 C 2090.944 1563.180, 2082.746 1567.156, 2079.349 1571.609 C 2076.975 1574.722, 2076.097 1578.741, 2070.457 1612.327 C 2067.015 1632.822, 2064.436 1650.830, 2064.726 1652.344 C 2065.469 1656.233, 2070.130 1660.512, 2075.724 1662.441 C 2088.836 1666.962, 2117.713 1666.698, 2130.427 1661.941 C 2137.313 1659.365, 2143.485 1654.138, 2144.901 1649.684 C 2146.159 1645.725, 2157.001 1579.827, 2156.996 1576.169 C 2156.991 1572.083, 2153.537 1567.314, 2148.852 1564.924 C 2139.820 1560.317, 2115.986 1558.643, 2100.181 1561.506 M 2631.477 1560.924 C 2616.704 1563.284, 2607.195 1569.011, 2604.988 1576.875 C 2603.390 1582.574, 2593 1646.467, 2593 1650.600 C 2593 1653.595, 2593.733 1655.007, 2596.802 1657.926 C 2601.523 1662.417, 2605.589 1663.733, 2619.329 1665.218 C 2627.445 1666.094, 2632.955 1666.107, 2641.329 1665.269 C 2658.812 1663.519, 2668.206 1659.437, 2672.038 1651.926 C 2674.092 1647.898, 2685 1584.208, 2685 1576.238 C 2685 1572.263, 2684.515 1571.229, 2681.149 1568.027 C 2675.489 1562.642, 2668.571 1560.910, 2651 1560.478 C 2643.025 1560.282, 2634.239 1560.482, 2631.477 1560.924 M 3736.500 1561.462 C 3724.327 1563.690, 3716.645 1568.013, 3713.654 1574.317 C 3712.759 1576.204, 3709.304 1594.239, 3705.977 1614.396 C 3700.093 1650.041, 3699.973 1651.140, 3701.594 1654.556 C 3705.211 1662.179, 3716.013 1665.406, 3738 1665.431 C 3760.046 1665.456, 3771.572 1662.142, 3778.238 1653.863 C 3781.013 1650.417, 3781.475 1648.352, 3787.067 1614.363 C 3790.312 1594.638, 3792.975 1577.668, 3792.984 1576.651 C 3793.017 1572.844, 3789.689 1567.902, 3785.398 1565.387 C 3776.983 1560.456, 3752.662 1558.503, 3736.500 1561.462 M 4471.326 1561.482 C 4457.192 1564.046, 4449.461 1569.492, 4447.165 1578.500 C 4446.604 1580.700, 4443.617 1597.914, 4440.528 1616.754 C 4435.062 1650.084, 4434.955 1651.104, 4436.585 1654.538 C 4440.212 1662.181, 4450.993 1665.406, 4473 1665.431 C 4495.049 1665.456, 4506.572 1662.142, 4513.241 1653.859 C 4516.031 1650.394, 4516.467 1648.415, 4522.256 1612.859 C 4528.325 1575.585, 4528.334 1575.491, 4526.539 1571.716 C 4524.124 1566.636, 4517.984 1563.187, 4508.278 1561.456 C 4498.646 1559.739, 4480.864 1559.752, 4471.326 1561.482 M 531.500 1563.336 C 522.050 1565.803, 516.940 1569.241, 513.917 1575.164 C 512.010 1578.900, 501 1641.407, 501 1648.495 C 501 1656.658, 506.327 1661.048, 518.637 1663.031 C 532.904 1665.328, 552.316 1661.538, 573.636 1652.292 L 581.771 1648.764 587.471 1613.827 C 590.607 1594.612, 592.948 1578.307, 592.675 1577.594 C 591.882 1575.528, 576.322 1568.328, 566.500 1565.483 C 555.593 1562.323, 539.225 1561.319, 531.500 1563.336 M 742 1562.622 C 732.108 1564.549, 724.523 1569.153, 721.450 1575.096 C 719.960 1577.979, 708.878 1642.689, 708.782 1649.077 C 708.585 1662.030, 728.774 1667.182, 755.500 1660.998 C 765.081 1658.781, 776.439 1654.786, 784.096 1650.938 L 789.692 1648.127 795.355 1613.313 C 798.469 1594.166, 801.014 1578.144, 801.009 1577.710 C 800.992 1576.186, 780.421 1566.982, 772.500 1564.954 C 764.765 1562.973, 747.123 1561.624, 742 1562.622 M 1247.874 1563.774 C 1240.109 1565.883, 1234.730 1569.648, 1232.091 1574.822 C 1230.262 1578.407, 1219 1642.923, 1219 1649.815 C 1219 1653.275, 1222.784 1658.320, 1227.023 1660.512 C 1232.315 1663.249, 1243.378 1664.283, 1254.063 1663.041 C 1266.472 1661.599, 1275.641 1659.075, 1289.152 1653.383 L 1299.805 1648.895 1300.802 1643.197 C 1305.313 1617.417, 1311.152 1578.839, 1310.715 1577.701 C 1309.888 1575.544, 1294.544 1568.392, 1284.500 1565.483 C 1272.330 1561.957, 1257.169 1561.250, 1247.874 1563.774" stroke="none" fill="#fffcfc" fill-rule="evenodd"/><path d="" stroke="none" fill="#fcfcfc" fill-rule="evenodd"/></svg>